<svg width="120" height="120" viewBox="0 0 120 120" fill="none" xmlns="http://www.w3.org/2000/svg">
<path d="M105 61.1C105 33.65 83.6999 15 59.9999 15C36.5499 15 14.9999 33.25 14.9999 61.4C11.9999 63.1 9.99994 66.3 9.99994 70V80C9.99994 85.5 14.4999 90 19.9999 90H24.9999V59.5C24.9999 40.15 40.6499 24.5 59.9999 24.5C79.3499 24.5 94.9999 40.15 94.9999 59.5V95H54.9999V105H94.9999C100.5 105 105 100.5 105 95V88.9C107.95 87.35 110 84.3 110 80.7V69.2C110 65.7 107.95 62.65 105 61.1Z" fill="#3A3A3A"/>
<path d="M44.9999 70C47.7614 70 49.9999 67.7614 49.9999 65C49.9999 62.2386 47.7614 60 44.9999 60C42.2385 60 39.9999 62.2386 39.9999 65C39.9999 67.7614 42.2385 70 44.9999 70Z" fill="#3A3A3A"/>
<path d="M75 70C77.7614 70 80 67.7614 80 65C80 62.2386 77.7614 60 75 60C72.2385 60 69.9999 62.2386 69.9999 65C69.9999 67.7614 72.2385 70 75 70Z" fill="#3A3A3A"/>
<path d="M89.9999 55.15C88.8077 48.1207 85.1669 41.7398 79.7221 37.1369C74.2773 32.534 67.3796 30.0059 60.2499 30C45.0999 30 28.7999 42.55 30.0999 62.25C36.2655 59.7269 41.7111 55.7174 45.951 50.5789C50.191 45.4404 53.0935 39.3326 54.3999 32.8C60.9499 45.95 74.3999 55 89.9999 55.15Z" fill="#3A3A3A"/>
</svg>
