<svg width="35" height="35" viewBox="0 0 35 35" fill="none" xmlns="http://www.w3.org/2000/svg">
<path fill-rule="evenodd" clip-rule="evenodd" d="M21.1005 24.4969C20.9986 24.3978 20.9178 24.2801 20.8627 24.1504C20.8076 24.0208 20.7792 23.8819 20.7792 23.7416C20.7792 23.6012 20.8076 23.4623 20.8627 23.3327C20.9178 23.2031 20.9986 23.0853 21.1005 22.9862L26.8908 17.3405L21.1005 11.6948C20.8951 11.4945 20.7797 11.2228 20.7797 10.9395C20.7797 10.6562 20.8951 10.3845 21.1005 10.1842C21.3059 9.98387 21.5844 9.87133 21.8749 9.87133C22.1653 9.87133 22.4439 9.98387 22.6493 10.1842L29.2118 16.5852C29.3136 16.6843 29.3944 16.802 29.4496 16.9317C29.5047 17.0613 29.5331 17.2002 29.5331 17.3405C29.5331 17.4809 29.5047 17.6198 29.4496 17.7494C29.3944 17.879 29.3136 17.9968 29.2118 18.0959L22.6493 24.4969C22.5477 24.5962 22.427 24.6751 22.2941 24.7288C22.1612 24.7826 22.0187 24.8103 21.8749 24.8103C21.731 24.8103 21.5886 24.7826 21.4557 24.7288C21.3228 24.6751 21.2021 24.5962 21.1005 24.4969Z" fill="#3A3A3A"/>
<path fill-rule="evenodd" clip-rule="evenodd" d="M5.46875 17.3404C5.46875 17.0574 5.58398 16.7861 5.7891 16.586C5.99422 16.3859 6.27242 16.2736 6.5625 16.2736L26.25 16.2736C26.5401 16.2736 26.8183 16.3859 27.0234 16.586C27.2285 16.7861 27.3437 17.0574 27.3437 17.3404C27.3437 17.6233 27.2285 17.8947 27.0234 18.0948C26.8183 18.2948 26.5401 18.4072 26.25 18.4072L6.5625 18.4072C6.27242 18.4072 5.99422 18.2948 5.7891 18.0948C5.58398 17.8947 5.46875 17.6233 5.46875 17.3404Z" fill="#3A3A3A"/>
</svg>
