<svg width="23" height="18" viewBox="0 0 23 18" fill="none" xmlns="http://www.w3.org/2000/svg">
<path d="M21.7861 7.60498H1.21389C0.543477 7.60498 0 8.1927 0 8.9177V9.05588C0 9.78087 0.543477 10.3686 1.21389 10.3686H21.7861C22.4565 10.3686 23 9.78087 23 9.05588V8.9177C23 8.1927 22.4565 7.60498 21.7861 7.60498Z" fill="#3A3A3A"/>
<path d="M21.7861 14.5142H1.21389C0.543477 14.5142 0 15.1019 0 15.8269V15.9651C0 16.6901 0.543477 17.2778 1.21389 17.2778H21.7861C22.4565 17.2778 23 16.6901 23 15.9651V15.8269C23 15.1019 22.4565 14.5142 21.7861 14.5142Z" fill="#3A3A3A"/>
<path d="M21.7861 0.696045H1.21389C0.543477 0.696045 0 1.28377 0 2.00876V2.14694C0 2.87194 0.543477 3.45966 1.21389 3.45966H21.7861C22.4565 3.45966 23 2.87194 23 2.14694V2.00876C23 1.28377 22.4565 0.696045 21.7861 0.696045Z" fill="#3A3A3A"/>
</svg>
