<svg width="28" height="26" viewBox="0 0 28 26" fill="none" xmlns="http://www.w3.org/2000/svg">
<path d="M27.5306 6.77252C27.4028 6.59244 27.2322 6.44525 27.0334 6.34356C26.8345 6.24187 26.6134 6.18871 26.3889 6.18864H7.40695L5.80417 2.43608C5.59401 1.94191 5.23815 1.51974 4.7817 1.22308C4.32525 0.926432 3.78877 0.768663 3.24028 0.769781H0V3.47921H3.24028L9.82917 18.9026C9.9347 19.1494 10.1127 19.3602 10.3409 19.5084C10.569 19.6567 10.837 19.7358 11.1111 19.7358H22.2222C22.8014 19.7358 23.3194 19.3849 23.5236 18.8579L27.6903 8.02021C27.769 7.81513 27.7956 7.59449 27.7678 7.37719C27.74 7.15989 27.6586 6.95241 27.5306 6.77252ZM21.2597 17.0263H12.0375L8.56528 8.89806H24.3847L21.2597 17.0263Z" fill="#3A3A3A"/>
<path d="M11.8056 25.1547C12.9562 25.1547 13.8889 24.2449 13.8889 23.1226C13.8889 22.0004 12.9562 21.0906 11.8056 21.0906C10.655 21.0906 9.72223 22.0004 9.72223 23.1226C9.72223 24.2449 10.655 25.1547 11.8056 25.1547Z" fill="#3A3A3A"/>
<path d="M21.5278 25.1547C22.6784 25.1547 23.6111 24.2449 23.6111 23.1226C23.6111 22.0004 22.6784 21.0906 21.5278 21.0906C20.3772 21.0906 19.4445 22.0004 19.4445 23.1226C19.4445 24.2449 20.3772 25.1547 21.5278 25.1547Z" fill="#3A3A3A"/>
</svg>
