<svg width="80" height="80" viewBox="0 0 80 80" fill="none" xmlns="http://www.w3.org/2000/svg">
<path d="M69.0445 22.1327C68.5832 21.4743 67.9701 20.9368 67.2571 20.5656C66.5441 20.1943 65.7522 20.0003 64.9483 20H52.5V12.5C52.4985 11.1744 51.9712 9.90347 51.0339 8.96611C50.0965 8.02875 48.8256 7.50149 47.5 7.5H7.5C6.17437 7.50149 4.90347 8.02875 3.96611 8.96611C3.02875 9.90347 2.50149 11.1744 2.5 12.5V63.75H10.7941C11.2333 66.2035 12.5214 68.4244 14.4329 70.0241C16.3443 71.6237 18.7575 72.5002 21.25 72.5002C23.7425 72.5002 26.1557 71.6237 28.0671 70.0241C29.9786 68.4244 31.2667 66.2035 31.7059 63.75H48.2941C48.7333 66.2035 50.0214 68.4244 51.9329 70.0241C53.8443 71.6237 56.2575 72.5002 58.75 72.5002C61.2425 72.5002 63.6557 71.6237 65.5671 70.0241C67.4786 68.4244 68.7667 66.2035 69.2059 63.75H77.5V35.3941C77.5012 34.6245 77.2645 33.8734 76.8222 33.2436L69.0445 22.1327ZM7.49687 12.5H47.5V40H7.5L7.49687 12.5ZM21.25 67.5C20.1375 67.5 19.0499 67.1701 18.1249 66.552C17.1999 65.9339 16.4789 65.0554 16.0532 64.0276C15.6274 62.9998 15.516 61.8688 15.7331 60.7776C15.9501 59.6865 16.4859 58.6842 17.2725 57.8975C18.0592 57.1109 19.0615 56.5751 20.1526 56.3581C21.2438 56.141 22.3748 56.2524 23.4026 56.6782C24.4304 57.1039 25.3089 57.8249 25.927 58.7499C26.5451 59.6749 26.875 60.7625 26.875 61.875C26.8733 63.3663 26.2802 64.7961 25.2256 65.8506C24.1711 66.9052 22.7413 67.4983 21.25 67.5ZM58.75 67.5C57.6375 67.5 56.5499 67.1701 55.6249 66.552C54.6999 65.9339 53.9789 65.0554 53.5532 64.0276C53.1274 62.9998 53.016 61.8688 53.2331 60.7776C53.4501 59.6865 53.9859 58.6842 54.7725 57.8975C55.5592 57.1109 56.5615 56.5751 57.6526 56.3581C58.7438 56.141 59.8748 56.2524 60.9026 56.6782C61.9304 57.1039 62.8089 57.8249 63.427 58.7499C64.0451 59.6749 64.375 60.7625 64.375 61.875C64.3733 63.3663 63.7802 64.7961 62.7256 65.8506C61.6711 66.9052 60.2413 67.4983 58.75 67.5ZM72.5 58.75H68.9053C68.2372 56.5781 66.8903 54.6777 65.0626 53.3277C63.2348 51.9776 61.0223 51.2491 58.75 51.2491C56.4777 51.2491 54.2652 51.9776 52.4374 53.3277C50.6097 54.6777 49.2628 56.5781 48.5947 58.75H31.4053C30.7372 56.5781 29.3903 54.6777 27.5626 53.3277C25.7348 51.9776 23.5223 51.2491 21.25 51.2491C18.9777 51.2491 16.7652 51.9776 14.9374 53.3277C13.1097 54.6777 11.7628 56.5781 11.0947 58.75H7.5V45H72.5V58.75ZM72.5 40H52.5V25H64.9483L72.5 35.7881V40Z" fill="#3A3A3A"/>
</svg>
