<svg width="120" height="120" viewBox="0 0 120 120" fill="none" xmlns="http://www.w3.org/2000/svg">
<path d="M119.233 27.1996C118.978 25.5773 118.235 24.071 117.104 22.8804C115.973 21.6898 114.507 20.8711 112.9 20.5329L93.3332 16.2329C91.2349 15.7753 89.0628 15.7736 86.9638 16.2279C84.8647 16.6822 82.8878 17.5819 81.1665 18.8663L23.3332 60.9996L7.13316 60.3329C5.83087 60.2863 4.54701 60.6512 3.46391 61.3758C2.38082 62.1004 1.55357 63.1478 1.09966 64.3693C0.645743 65.5908 0.588248 66.9243 0.935336 68.1803C1.28242 69.4364 2.01645 70.5511 3.03316 71.3663L19.6998 84.4663C21.6998 86.8996 23.0332 86.4329 56.1332 68.3996L59.2332 99.7996C59.2847 100.656 59.5784 101.48 60.0799 102.177C60.5815 102.873 61.2704 103.413 62.0665 103.733C62.6393 103.959 63.2506 104.072 63.8665 104.066C65.1062 104.028 66.2903 103.543 67.1998 102.7L75.1665 95.4329C75.9597 94.698 76.4971 93.7285 76.6998 92.6663L83.9998 52.9996C95.8998 46.3329 107.166 40.0663 115.2 35.4996C116.637 34.6911 117.793 33.4633 118.514 31.9801C119.235 30.497 119.486 28.8292 119.233 27.1996ZM111.9 29.6996C103.566 34.4329 91.8998 41.0663 79.3665 47.9329L77.9998 48.6996L70.2332 90.9329L65.3332 95.3996L61.6665 57.7329L57.2332 59.9996C33.3332 73.3329 25.3665 77.1996 22.6332 78.3996L8.29982 67.0329L25.2332 67.7663L85.2332 24.2329C86.1762 23.5278 87.2576 23.0298 88.4064 22.7713C89.5552 22.5128 90.7456 22.4997 91.8998 22.7329L111.4 26.9329C111.7 26.9874 111.976 27.1364 112.185 27.3583C112.395 27.5801 112.529 27.8632 112.566 28.1663C112.635 28.4595 112.607 28.7671 112.487 29.0434C112.367 29.3196 112.161 29.5497 111.9 29.6996Z" fill="#3A3A3A"/>
<path d="M23.3336 41.7999L35.2002 45.1332L40.6669 41.1665L27.3336 37.2999L33.3336 33.6332L51.5669 33.0999L59.2336 27.5332L33.3336 28.3332C32.517 28.289 31.7056 28.4861 31.0002 28.8999L22.2336 33.9999C21.5088 34.4292 20.9273 35.0635 20.5625 35.8228C20.1976 36.5821 20.0657 37.4324 20.1833 38.2666C20.301 39.1007 20.6629 39.8814 21.2235 40.5102C21.7841 41.1389 22.5183 41.5877 23.3336 41.7999Z" fill="#3A3A3A"/>
</svg>
