<svg width="50" height="50" viewBox="0 0 50 50" fill="none" xmlns="http://www.w3.org/2000/svg">
<path d="M25 4.16663C13.5125 4.16663 4.16666 13.5125 4.16666 25C4.16666 36.4875 13.5125 45.8333 25 45.8333C36.4875 45.8333 45.8333 36.4875 45.8333 25C45.8333 13.5125 36.4875 4.16663 25 4.16663ZM33.7208 26.5416L25 35.2625L16.2792 26.5416C15.7403 26.0097 15.3124 25.376 15.0204 24.6774C14.7284 23.9787 14.578 23.229 14.578 22.4718C14.578 21.7146 14.7284 20.965 15.0204 20.2663C15.3124 19.5677 15.7403 18.934 16.2792 18.402C16.8111 17.8635 17.4446 17.4359 18.1431 17.144C18.8415 16.8522 19.5909 16.7019 20.3479 16.7019C21.1049 16.7019 21.8543 16.8522 22.5527 17.144C23.2512 17.4359 23.8847 17.8635 24.4167 18.402L25 18.9833L25.5812 18.402C26.1132 17.8635 26.7467 17.4359 27.4452 17.144C28.1436 16.8522 28.893 16.7019 29.65 16.7019C30.407 16.7019 31.1564 16.8522 31.8548 17.144C32.5533 17.4359 33.1868 17.8635 33.7187 18.402C34.2578 18.9339 34.6858 19.5674 34.978 20.266C35.2702 20.9646 35.4208 21.7142 35.421 22.4714C35.4212 23.2286 35.271 23.9783 34.9791 24.677C34.6873 25.3757 34.2596 26.0095 33.7208 26.5416Z" fill="#3A3A3A"/>
</svg>
