<svg width="28" height="26" viewBox="0 0 28 26" fill="none" xmlns="http://www.w3.org/2000/svg">
<path d="M27.2313 5.76697C26.7983 4.78907 26.174 3.90292 25.3933 3.1581C24.612 2.41107 23.6908 1.81741 22.6798 1.40941C21.6315 0.98466 20.5072 0.767249 19.372 0.769798C17.7795 0.769798 16.2257 1.19516 14.8755 1.99861C14.5524 2.19081 14.2456 2.40191 13.9548 2.63192C13.6641 2.40191 13.3572 2.19081 13.0342 1.99861C11.6839 1.19516 10.1302 0.769798 8.53764 0.769798C7.39089 0.769798 6.27967 0.984052 5.22983 1.40941C4.21552 1.81901 3.30135 2.40821 2.51639 3.1581C1.73465 3.90208 1.11018 4.78844 0.67836 5.76697C0.22935 6.78467 0 7.8654 0 8.97763C0 10.0268 0.219659 11.1202 0.655748 12.2324C1.02077 13.1619 1.54408 14.126 2.21274 15.0996C3.27228 16.6404 4.72914 18.2473 6.5381 19.8762C9.5358 22.5765 12.5044 24.4418 12.6304 24.5174L13.396 24.9963C13.7352 25.2074 14.1713 25.2074 14.5104 24.9963L15.276 24.5174C15.402 24.4386 18.3674 22.5765 21.3683 19.8762C23.1773 18.2473 24.6342 16.6404 25.6937 15.0996C26.3624 14.126 26.8889 13.1619 27.2507 12.2324C27.6868 11.1202 27.9064 10.0268 27.9064 8.97763C27.9097 7.8654 27.6803 6.78467 27.2313 5.76697ZM13.9548 22.504C13.9548 22.504 2.45502 15.317 2.45502 8.97763C2.45502 5.76697 5.17815 3.16441 8.53764 3.16441C10.899 3.16441 12.947 4.44993 13.9548 6.32781C14.9627 4.44993 17.0107 3.16441 19.372 3.16441C22.7315 3.16441 25.4546 5.76697 25.4546 8.97763C25.4546 15.317 13.9548 22.504 13.9548 22.504Z" fill="#3A3A3A"/>
</svg>
