<svg width="120" height="120" viewBox="0 0 120 120" fill="none" xmlns="http://www.w3.org/2000/svg">
<path d="M86.25 7.5L92.2238 18.75L105 20.3025L95.625 28.7512L97.5 41.25L86.25 34.2188L75 41.25L76.875 28.7512L67.5 20.3025L80.625 18.75L86.25 7.5Z" fill="#3A3A3A"/>
<path d="M85.1887 49.6842L77.9212 47.8167C76.6185 52.8351 73.8576 57.3548 69.9873 60.8048C66.1171 64.2548 61.3111 66.4803 56.1766 67.2002C51.0421 67.9201 45.8095 67.102 41.1397 64.8493C36.4699 62.5967 32.5726 59.0105 29.94 54.5438C27.3074 50.0772 26.0578 44.9305 26.349 39.7539C26.6401 34.5774 28.459 29.6033 31.5758 25.46C34.6926 21.3167 38.9675 18.1901 43.8604 16.4753C48.7534 14.7605 54.0448 14.5343 59.0662 15.8254L60.9374 8.56166C53.6174 6.65761 45.8696 7.27047 38.94 10.3017C32.0103 13.3329 26.3013 18.6064 22.7308 25.2743C19.1604 31.9422 17.9359 39.6171 19.2543 47.0649C20.5728 54.5128 24.3575 61.3009 29.9999 66.3379V112.5L52.4999 97.5004L74.9999 112.5V66.4054C79.9804 61.9664 83.5272 56.1456 85.1887 49.6842ZM67.4999 98.4867L52.4999 88.4854L37.4999 98.4867V71.4379C42.1538 73.7758 47.2891 74.9953 52.4973 74.9992C57.7054 75.0031 62.8425 73.7914 67.4999 71.4604V98.4867Z" fill="#3A3A3A"/>
</svg>
