<svg width="20" height="21" viewBox="0 0 20 21" fill="none" xmlns="http://www.w3.org/2000/svg">
<path d="M13.375 10.6812C13.375 8.85232 11.875 7.38923 10 7.38923C8.125 7.38923 6.625 8.85232 6.625 10.6812C6.625 12.5101 8.125 13.9731 10 13.9731C11.875 13.9731 13.375 12.5101 13.375 10.6812ZM15.125 10.6812C15.125 13.4854 12.875 15.6801 10 15.6801C7.125 15.6801 4.875 13.4854 4.875 10.6812C4.875 7.87693 7.125 5.68229 10 5.68229C12.875 5.68229 15.125 7.87693 15.125 10.6812ZM16.5 5.43844C16.5 6.16999 16 6.65769 15.25 6.65769C14.5 6.65769 14 6.16999 14 5.43844C14 4.7069 14.5 4.2192 15.25 4.2192C16 4.2192 16.5 4.82882 16.5 5.43844ZM10 2.63419C8.5 2.63419 5.375 2.51226 4.125 2.99996C3.25 3.36573 2.5 4.09728 2.25 4.95075C1.75 6.16999 1.875 9.2181 1.875 10.6812C1.875 12.1443 1.75 15.1924 2.25 16.4116C2.5 17.2651 3.25 17.9966 4.125 18.2405C5.375 18.7282 8.625 18.6063 10 18.6063C11.375 18.6063 14.625 18.7282 15.875 18.2405C16.75 17.8747 17.375 17.2651 17.75 16.4116C18.25 15.0705 18.125 12.0224 18.125 10.6812C18.125 9.34002 18.25 6.16999 17.75 4.95075C17.5 4.09728 16.75 3.36573 15.875 3.12188C14.625 2.51226 11.5 2.63419 10 2.63419ZM20 10.6812V14.7047C20 16.1678 19.5 17.6309 18.375 18.8501C17.25 19.9474 15.75 20.4351 14.125 20.4351H5.875C4.375 20.4351 2.875 19.9474 1.625 18.8501C0.625 17.7528 0 16.2897 0 14.7047V10.6812V6.65769C0 5.07267 0.625 3.60958 1.625 2.51226C2.875 1.53687 4.375 0.927246 5.875 0.927246H14.125C15.625 0.927246 17.125 1.41494 18.375 2.51226C19.375 3.60958 20 5.07267 20 6.65769V10.6812Z" fill="#3A3A3A"/>
</svg>
