<svg width="40" height="40" viewBox="0 0 40 40" fill="none" xmlns="http://www.w3.org/2000/svg">
<path d="M8.33333 36.6667H31.6667C33.505 36.6667 35 35.1717 35 33.3333V15C35 14.558 34.8244 14.1341 34.5118 13.8215C34.1993 13.5089 33.7754 13.3333 33.3333 13.3333H28.3333V11.6667C28.3333 7.07168 24.595 3.33334 20 3.33334C15.405 3.33334 11.6667 7.07168 11.6667 11.6667V13.3333H6.66667C6.22464 13.3333 5.80072 13.5089 5.48816 13.8215C5.17559 14.1341 5 14.558 5 15V33.3333C5 35.1717 6.495 36.6667 8.33333 36.6667ZM15 11.6667C15 8.91001 17.2433 6.66668 20 6.66668C22.7567 6.66668 25 8.91001 25 11.6667V13.3333H15V11.6667ZM8.33333 16.6667H11.6667V20H15V16.6667H25V20H28.3333V16.6667H31.6667L31.67 33.3333H8.33333V16.6667Z" fill="#3A3A3A" fill-opacity="0.8"/>
</svg>
