<svg width="20" height="20" viewBox="0 0 20 20" fill="none" xmlns="http://www.w3.org/2000/svg">
<path d="M13.805 18.3326H13.8283C14.2683 18.3326 14.6841 18.1592 14.9991 17.8442L17.2591 15.5842C17.3366 15.5069 17.398 15.4151 17.44 15.314C17.4819 15.2129 17.5035 15.1045 17.5035 14.9951C17.5035 14.8856 17.4819 14.7773 17.44 14.6762C17.398 14.5751 17.3366 14.4832 17.2591 14.4059L13.9258 11.0726C13.8485 10.9951 13.7566 10.9337 13.6555 10.8918C13.5544 10.8498 13.4461 10.8282 13.3366 10.8282C13.2272 10.8282 13.1188 10.8498 13.0177 10.8918C12.9166 10.9337 12.8248 10.9951 12.7475 11.0726L11.4191 12.4009C10.8033 12.2176 9.65412 11.8009 8.92579 11.0726C8.19746 10.3442 7.78079 9.19508 7.59746 8.57925L8.92579 7.25092C9.00324 7.17359 9.06469 7.08175 9.10662 6.98066C9.14854 6.87956 9.17012 6.77119 9.17012 6.66175C9.17012 6.5523 9.14854 6.44393 9.10662 6.34284C9.06469 6.24174 9.00324 6.1499 8.92579 6.07258L5.59246 2.73925C5.43314 2.58888 5.22236 2.50511 5.00329 2.50511C4.78422 2.50511 4.57344 2.58888 4.41412 2.73925L2.15496 4.99925C1.83829 5.31591 1.65996 5.75092 1.66662 6.19508C1.68579 7.38175 1.99996 11.5034 5.24829 14.7517C8.49662 18.0001 12.6183 18.3134 13.805 18.3326ZM5.00412 4.50675L7.15912 6.66175L6.08162 7.73925C5.98357 7.83703 5.91154 7.9578 5.87209 8.09054C5.83265 8.22328 5.82704 8.36379 5.85579 8.49925C5.87579 8.59508 6.36496 10.8676 7.74829 12.2509C9.13162 13.6342 11.4041 14.1234 11.5 14.1434C11.6354 14.1723 11.776 14.1668 11.9087 14.1273C12.0415 14.0879 12.1623 14.0158 12.26 13.9176L13.3375 12.8401L15.4925 14.9951L13.8208 16.6659C12.7808 16.6484 9.22246 16.3692 6.42662 13.5726C3.62162 10.7676 3.34996 7.19675 3.33329 6.17758L5.00412 4.50675ZM16.6658 9.16591H18.3325C18.3325 4.89091 15.105 1.66675 10.8241 1.66675V3.33341C14.2091 3.33341 16.6658 5.78591 16.6658 9.16591Z" fill="#3A3A3A" fill-opacity="0.6"/>
<path d="M10.8325 6.66667C12.585 6.66667 13.3325 7.41417 13.3325 9.16667H14.9992C14.9992 6.47917 13.52 5 10.8325 5V6.66667Z" fill="#3A3A3A" fill-opacity="0.6"/>
</svg>
