<svg width="16" height="21" viewBox="0 0 16 21" fill="none" xmlns="http://www.w3.org/2000/svg">
<path d="M7.06808e-05 7.9408C7.06808e-05 7.0974 0.151224 6.3006 0.449084 5.55693C0.733667 4.83461 1.15648 4.17167 1.69499 3.60343C2.2324 3.04265 2.84738 2.55774 3.52216 2.1627C4.21448 1.75417 4.964 1.44596 5.74722 1.24774C6.5399 1.04472 7.35612 0.942333 8.17567 0.94312C9.44158 0.94312 10.6197 1.20438 11.7122 1.72474C12.7905 2.2356 13.7083 3.0196 14.3696 3.99478C15.052 4.98671 15.391 6.10872 15.391 7.35974C15.391 8.10992 15.3154 8.84384 15.1609 9.56149C15.0093 10.2787 14.7681 10.9752 14.443 11.6353C14.133 12.2743 13.7278 12.8651 13.2404 13.3883C12.7506 13.9032 12.1574 14.3142 11.4977 14.5959C10.7815 14.9021 10.0068 15.0562 9.22485 15.048C8.68137 15.048 8.139 14.9233 7.60329 14.6729C7.06759 14.4236 6.68304 14.081 6.45186 13.6419C6.37073 13.9466 6.25959 14.3867 6.11177 14.9623C5.96951 15.5369 5.87392 15.9076 5.83169 16.0757C5.78723 16.2426 5.70499 16.5212 5.58495 16.9072C5.50355 17.1926 5.39912 17.4714 5.27265 17.7408L4.89032 18.4715C4.72497 18.785 4.54013 19.0884 4.33683 19.3799C4.13566 19.664 3.88671 20.0033 3.58996 20.3935L3.42435 20.451L3.31432 20.3339C3.1954 19.1057 3.13427 18.3707 3.13427 18.1278C3.13427 17.4091 3.22208 16.6025 3.39546 15.7071C3.5655 14.8127 3.83447 13.6886 4.19568 12.3367C4.55689 10.986 4.76362 10.1913 4.81919 9.95609C4.56467 9.44983 4.43575 8.78855 4.43575 7.97549C4.43575 7.32614 4.64358 6.71797 5.06036 6.14558C5.47826 5.57536 6.00618 5.29025 6.64636 5.29025C7.1365 5.29025 7.5166 5.44852 7.7889 5.76616C8.06231 6.08271 8.19568 6.48164 8.19568 6.96839C8.19568 7.48441 8.02008 8.23134 7.66664 9.20809C7.31321 10.1859 7.13761 10.9155 7.13761 11.4001C7.13761 11.8912 7.31766 12.302 7.67776 12.624C8.03313 12.9461 8.50309 13.1207 8.98812 13.1107C9.42824 13.1107 9.83613 13.0132 10.2151 12.817C10.5882 12.6265 10.9111 12.3546 11.1587 12.0223C11.698 11.3007 12.0825 10.4803 12.289 9.61028C12.3957 9.1528 12.478 8.71808 12.5291 8.30939C12.5836 7.89853 12.6069 7.51043 12.6069 7.14184C12.6069 5.79001 12.1668 4.73629 11.2921 3.98177C10.413 3.22726 9.2682 2.85217 7.86003 2.85217C6.25847 2.85217 4.91921 3.35735 3.84669 4.37096C2.77306 5.38131 2.23291 6.66594 2.23291 8.22375C2.23291 8.5674 2.28626 8.89912 2.3874 9.22001C2.48632 9.53981 2.59412 9.79457 2.71082 9.9832C2.82641 10.1686 2.93533 10.3496 3.03425 10.5166C3.13427 10.6835 3.18651 10.8028 3.18651 10.8743C3.18651 11.0933 3.12761 11.3784 3.00868 11.7307C2.88532 12.083 2.73972 12.2587 2.56412 12.2587C2.54744 12.2587 2.47854 12.2467 2.3585 12.2218C1.94279 12.1007 1.56737 11.8745 1.27042 11.5659C0.955266 11.2462 0.706549 10.87 0.537997 10.458C0.369926 10.0475 0.23902 9.62349 0.146778 9.19074C0.0471189 8.78126 -0.00213118 8.36166 7.06808e-05 7.9408V7.9408Z" fill="#3A3A3A"/>
</svg>
