<svg width="120" height="120" viewBox="0 0 120 120" fill="none" xmlns="http://www.w3.org/2000/svg">
<path d="M60.0001 6.66675C49.4517 6.66675 39.1403 9.79469 30.3696 15.655C21.599 21.5154 14.7632 29.8449 10.7265 39.5903C6.6898 49.3357 5.63363 60.0592 7.6915 70.4049C9.74938 80.7505 14.8289 90.2536 22.2877 97.7124C29.7465 105.171 39.2496 110.251 49.5952 112.309C59.9409 114.367 70.6644 113.31 80.4098 109.274C90.1552 105.237 98.4848 98.4011 104.345 89.6305C110.205 80.8599 113.333 70.5484 113.333 60.0001C113.333 45.8552 107.714 32.2897 97.7124 22.2877C87.7105 12.2858 74.1449 6.66675 60.0001 6.66675ZM60.0001 106.667C50.7703 106.667 41.7477 103.93 34.0734 98.802C26.3991 93.6742 20.4178 86.3859 16.8857 77.8586C13.3536 69.3314 12.4294 59.9483 14.2301 50.8959C16.0307 41.8434 20.4753 33.5282 27.0017 27.0018C33.5282 20.4753 41.8434 16.0307 50.8958 14.2301C59.9483 12.4295 69.3314 13.3536 77.8586 16.8857C86.3858 20.4178 93.6742 26.3992 98.802 34.0735C103.93 41.7478 106.667 50.7703 106.667 60.0001C106.667 72.3768 101.75 84.2467 92.9984 92.9984C84.2467 101.75 72.3768 106.667 60.0001 106.667Z" fill="#3A3A3A"/>
<path d="M63.0664 61.3335V35.8335C63.0664 34.9494 62.7153 34.1016 62.0901 33.4764C61.465 32.8513 60.6172 32.5001 59.7331 32.5001C58.8491 32.5001 58.0012 32.8513 57.3761 33.4764C56.751 34.1016 56.3998 34.9494 56.3998 35.8335V64.9001L76.0664 78.2334C76.4287 78.5059 76.8428 78.7017 77.2833 78.8087C77.7238 78.9157 78.1814 78.9317 78.6283 78.8558C79.0753 78.7799 79.502 78.6136 79.8824 78.3671C80.2629 78.1207 80.5891 77.7992 80.841 77.4224C81.093 77.0456 81.2655 76.6213 81.3479 76.1755C81.4303 75.7298 81.4209 75.2719 81.3203 74.8299C81.2198 74.3879 81.0301 73.9711 80.7629 73.6049C80.4957 73.2387 80.1567 72.9308 79.7664 72.7001L63.0664 61.3335Z" fill="#3A3A3A"/>
<path d="M26.6666 59.8004C26.6361 53.8038 28.2336 47.9114 31.2887 42.7514C34.3438 37.5914 38.742 33.3572 44.0144 30.5004C49.2868 27.6435 55.2356 26.2711 61.2267 26.5293C67.2177 26.7876 73.0264 28.667 78.0333 31.967L80.8666 27.4337C76.1107 24.3183 70.7239 22.295 65.0931 21.509C59.4623 20.723 53.7273 21.1938 48.3001 22.8877C42.8729 24.5815 37.8882 27.4564 33.7041 31.3057C29.5199 35.155 26.2403 39.8832 24.1007 45.1506C21.9611 50.418 21.0147 56.094 21.3295 61.7706C21.6442 67.4473 23.2123 72.9838 25.9211 77.9825C28.6299 82.9811 32.4121 87.3177 36.9961 90.6809C41.5801 94.044 46.8521 96.3502 52.4333 97.4337L53.3333 92.3337C45.8266 90.8014 39.0768 86.73 34.22 80.8047C29.3631 74.8794 26.6957 67.4618 26.6666 59.8004Z" fill="#3A3A3A"/>
</svg>
