<svg width="25" height="26" viewBox="0 0 25 26" fill="none" xmlns="http://www.w3.org/2000/svg">
<g clip-path="url(#clip0)">
<path d="M10.6912 21.626C13.0633 21.6255 15.367 20.851 17.2355 19.4257L23.1103 25.1559L25 23.3128L19.1252 17.5825C20.5872 15.7598 21.3818 13.5122 21.3824 11.1979C21.3824 5.44809 16.586 0.769775 10.6912 0.769775C4.79633 0.769775 0 5.44809 0 11.1979C0 16.9477 4.79633 21.626 10.6912 21.626ZM10.6912 3.3768C15.1133 3.3768 18.7096 6.88456 18.7096 11.1979C18.7096 15.5112 15.1133 19.019 10.6912 19.019C6.26904 19.019 2.6728 15.5112 2.6728 11.1979C2.6728 6.88456 6.26904 3.3768 10.6912 3.3768Z" fill="#3A3A3A"/>
</g>
<defs>
<clipPath id="clip0">
<rect width="25" height="24.3849" fill="white" transform="translate(0 0.769775)"/>
</clipPath>
</defs>
</svg>
