<svg width="80" height="80" viewBox="0 0 80 80" fill="none" xmlns="http://www.w3.org/2000/svg">
<path d="M13.125 6.875L11.7175 8.2025L8.2025 11.7175L6.875 13.125L7.89 14.765L13.125 23.515L13.8275 24.765H21.175L31.175 34.6875C22.24 43.6625 10.8725 55.0675 10.4725 55.47C6.555 59.385 6.5475 65.8 10.5475 69.5325C14.455 73.3875 20.8225 73.4875 24.535 69.5325L24.61 69.4525L40 53.985L55.47 69.53L55.7025 69.6875C59.6275 73.3875 65.87 73.4375 69.5325 69.53V69.455H69.6075C73.4375 65.5375 73.4775 59.17 69.5325 55.4675L69.4525 55.3925L56.4075 42.4225C65.185 41.6025 72.06 34.19 72.1875 25.235H72.265C72.275 25.185 72.265 25.1275 72.265 25.0775V25C72.51 22.11 71.885 19.345 70.39 16.9525L68.675 14.3L57.0325 25.94L53.5175 22.2675L65.3925 10.3925L61.955 8.9875C59.7623 8.02285 57.3955 7.51666 55 7.5C45.39 7.5 37.5 15.39 37.5 25C37.5 26.045 37.725 26.9525 37.89 27.89C36.7975 28.985 35.9775 29.8825 34.6875 31.1725L24.765 21.25V13.8275L23.515 13.125L14.765 7.89L13.125 6.875ZM55 12.5C55.35 12.5 55.595 12.705 55.9375 12.735L46.485 22.1875L48.2025 23.985L55.235 31.25L56.9525 33.0475L66.875 23.125C66.925 23.7 67.335 24.12 67.265 24.765V25C67.265 31.885 61.65 37.5 54.765 37.5C53.8475 37.5 52.735 37.285 51.485 37.03L50.155 36.7975L49.2175 37.735L21.0175 66.015H20.9375V66.095C19.1625 68.0375 16.055 68.085 13.985 66.015V65.9375H13.905C11.9625 64.1625 11.915 61.055 13.985 58.985C14.9325 58.035 33.28 39.53 42.265 30.5475L43.2825 29.5325L42.89 28.125C42.6527 27.0995 42.522 26.0523 42.5 25C42.5 18.115 48.115 12.5 55 12.5ZM13.905 13.125L19.765 16.72V19.22L19.22 19.765H16.72L13.125 13.9075L13.905 13.125ZM50.4675 43.515L66.0175 58.985V59.0625H66.0925C68.0375 60.8375 68.085 63.945 66.0175 66.015H65.9375V66.095C64.1625 68.0375 61.055 68.085 58.985 66.015L43.515 50.47L50.4675 43.515Z" fill="#3A3A3A"/>
</svg>
