<svg width="20" height="20" viewBox="0 0 20 20" fill="none" xmlns="http://www.w3.org/2000/svg">
<path d="M17.2267 5.31445V2.8125C17.2267 2.4668 16.9474 2.1875 16.6017 2.1875H3.39854C3.05284 2.1875 2.77354 2.4668 2.77354 2.8125V5.31445C2.44737 5.33398 2.1876 5.60547 2.1876 5.9375V8.50977C2.18635 8.98251 2.28208 9.45048 2.46885 9.88477C2.55284 10.084 2.65635 10.2715 2.77354 10.4492V17.1875C2.77354 17.5312 3.05284 17.8125 3.39854 17.8125H16.6017C16.9474 17.8125 17.2267 17.5332 17.2267 17.1875V10.4492C17.3457 10.271 17.4477 10.0821 17.5314 9.88477C17.7169 9.44922 17.8126 8.98633 17.8126 8.50977V5.9375C17.8126 5.60547 17.5528 5.33398 17.2267 5.31445ZM4.17979 3.59375H15.8204V5.3125H4.17979V3.59375ZM11.2501 16.4082H8.7501V14.375H11.2501V16.4082ZM15.8204 16.4082H12.5001V13.75C12.5001 13.4043 12.2208 13.125 11.8751 13.125H8.1251C7.7794 13.125 7.5001 13.4043 7.5001 13.75V16.4082H4.17979V11.6777C4.23643 11.7051 4.29503 11.7324 4.35557 11.7559C4.79112 11.9395 5.25401 12.0312 5.73057 12.0312C6.20713 12.0312 6.66807 11.9395 7.10557 11.7559C7.3751 11.6426 7.62901 11.498 7.86143 11.3242C7.86534 11.3223 7.86924 11.3223 7.87315 11.3242C8.1063 11.4988 8.36018 11.6438 8.62901 11.7559C9.06456 11.9395 9.52745 12.0312 10.004 12.0312C10.4806 12.0312 10.9415 11.9395 11.379 11.7559C11.6485 11.6426 11.9024 11.498 12.1349 11.3242C12.1388 11.3223 12.1427 11.3223 12.1466 11.3242C12.3797 11.4988 12.6336 11.6438 12.9024 11.7559C13.338 11.9395 13.8009 12.0312 14.2774 12.0312C14.754 12.0312 15.2149 11.9395 15.6524 11.7559C15.711 11.7305 15.7696 11.7051 15.8282 11.6777V16.4082H15.8204ZM16.4064 8.50977C16.4064 9.67773 15.4493 10.625 14.2716 10.625C13.4747 10.625 12.7794 10.1934 12.4122 9.55273C12.3556 9.45508 12.254 9.39453 12.1407 9.39453H12.129C12.0177 9.39453 11.9142 9.45508 11.8575 9.55273C11.6701 9.87952 11.3996 10.1509 11.0733 10.3392C10.7471 10.5275 10.3768 10.6262 10.0001 10.625C9.20518 10.625 8.51182 10.1953 8.14463 9.55664C8.08604 9.45703 7.98057 9.39453 7.86534 9.39453C7.7501 9.39453 7.64268 9.45703 7.58604 9.55664C7.39757 9.88218 7.12666 10.1523 6.80058 10.3399C6.47451 10.5274 6.10478 10.6258 5.72862 10.625C4.55088 10.625 3.59385 9.67773 3.59385 8.50977V6.72852C3.59385 6.72266 3.59776 6.71875 3.60362 6.71875H16.3966C16.4024 6.71875 16.4064 6.72266 16.4064 6.72852V8.50977Z" fill="#3A3A3A" fill-opacity="0.6"/>
</svg>
