<svg width="80" height="80" viewBox="0 0 80 80" fill="none" xmlns="http://www.w3.org/2000/svg">
<path d="M66.46 26.6664H70C71.7681 26.6664 73.4638 27.3688 74.714 28.619C75.9643 29.8693 76.6666 31.565 76.6666 33.3331V46.6664C76.6666 48.4345 75.9643 50.1302 74.714 51.3805C73.4638 52.6307 71.7681 53.3331 70 53.3331H66.46C65.6473 59.7774 62.5109 65.7037 57.6391 69.9997C52.7674 74.2958 46.4953 76.6663 40 76.6664V69.9997C45.3043 69.9997 50.3914 67.8926 54.1421 64.1419C57.8928 60.3912 60 55.3041 60 49.9997V29.9997C60 24.6954 57.8928 19.6083 54.1421 15.8576C50.3914 12.1069 45.3043 9.99975 40 9.99975C34.6956 9.99975 29.6086 12.1069 25.8578 15.8576C22.1071 19.6083 20 24.6954 20 29.9997V53.3331H9.99998C8.23187 53.3331 6.53618 52.6307 5.28593 51.3805C4.03569 50.1302 3.33331 48.4345 3.33331 46.6664V33.3331C3.33331 31.565 4.03569 29.8693 5.28593 28.619C6.53618 27.3688 8.23187 26.6664 9.99998 26.6664H13.54C14.3534 20.2227 17.4902 14.2973 22.3619 10.002C27.2335 5.70668 33.5052 3.33667 40 3.33667C46.4948 3.33667 52.7664 5.70668 57.6381 10.002C62.5097 14.2973 65.6465 20.2227 66.46 26.6664ZM9.99998 33.3331V46.6664H13.3333V33.3331H9.99998ZM66.6666 33.3331V46.6664H70V33.3331H66.6666ZM25.8666 52.6164L29.4 46.9631C32.5769 48.9532 36.2512 50.0058 40 49.9997C43.7488 50.0058 47.4231 48.9532 50.6 46.9631L54.1333 52.6164C49.8975 55.2702 44.9984 56.6741 40 56.6664C35.0015 56.6741 30.1024 55.2702 25.8666 52.6164Z" fill="#3A3A3A"/>
</svg>
