<svg width="25" height="21" viewBox="0 0 25 21" fill="none" xmlns="http://www.w3.org/2000/svg">
<path d="M24.6183 3.2919C23.713 3.67282 22.7278 3.94697 21.713 4.05375C22.7666 3.44322 23.5556 2.47869 23.9319 1.34112C22.9433 1.91478 21.8602 2.31704 20.7308 2.53006C20.2587 2.03782 19.6878 1.64568 19.0535 1.37807C18.4193 1.11047 17.7354 0.973132 17.0444 0.974621C14.2485 0.974621 12 3.18513 12 5.89776C12 6.27868 12.0473 6.65961 12.1243 7.0261C7.93787 6.81255 4.20414 4.86177 1.72189 1.87498C1.2696 2.62851 1.03258 3.48648 1.0355 4.35964C1.0355 6.06802 1.92603 7.5744 3.28402 8.46033C2.48374 8.42959 1.7022 8.21504 1.00296 7.83412V7.89472C1.00296 10.287 2.73669 12.2696 5.04733 12.7255C4.61348 12.8354 4.16718 12.8917 3.71893 12.8929C3.39053 12.8929 3.07988 12.8611 2.76627 12.8179C3.40532 14.7686 5.26627 16.1856 7.48224 16.2317C5.74852 17.5563 3.57692 18.3355 1.21893 18.3355C0.795858 18.3355 0.405325 18.321 0 18.2749C2.23669 19.6745 4.89053 20.4825 7.74852 20.4825C17.0266 20.4825 22.1035 12.9852 22.1035 6.4778C22.1035 6.26426 22.1035 6.05071 22.0887 5.83716C23.071 5.13592 23.9319 4.2673 24.6183 3.2919Z" fill="#3A3A3A"/>
</svg>
