<svg width="25" height="26" viewBox="0 0 25 26" fill="none" xmlns="http://www.w3.org/2000/svg">
<path fill-rule="evenodd" clip-rule="evenodd" d="M17.0453 9.63698C17.0453 10.8128 16.5664 11.9406 15.714 12.772C14.8615 13.6035 13.7054 14.0706 12.4999 14.0706C11.2943 14.0706 10.1382 13.6035 9.28574 12.772C8.4333 11.9406 7.95441 10.8128 7.95441 9.63698C7.95441 8.46111 8.4333 7.33341 9.28574 6.50194C10.1382 5.67048 11.2943 5.20337 12.4999 5.20337C13.7054 5.20337 14.8615 5.67048 15.714 6.50194C16.5664 7.33341 17.0453 8.46111 17.0453 9.63698ZM14.7726 9.63698C14.7726 10.2249 14.5331 10.7888 14.1069 11.2045C13.6807 11.6202 13.1026 11.8538 12.4999 11.8538C11.8971 11.8538 11.319 11.6202 10.8928 11.2045C10.4666 10.7888 10.2271 10.2249 10.2271 9.63698C10.2271 9.04905 10.4666 8.48519 10.8928 8.06946C11.319 7.65373 11.8971 7.42017 12.4999 7.42017C13.1026 7.42017 13.6807 7.65373 14.1069 8.06946C14.5331 8.48519 14.7726 9.04905 14.7726 9.63698Z" fill="#3A3A3A"/>
<path fill-rule="evenodd" clip-rule="evenodd" d="M12.5 0.769775C5.59659 0.769775 0 6.22866 0 12.9622C0 19.6957 5.59659 25.1546 12.5 25.1546C19.4034 25.1546 25 19.6957 25 12.9622C25 6.22866 19.4034 0.769775 12.5 0.769775ZM2.27273 12.9622C2.27273 15.2788 3.08295 17.4113 4.44091 19.105C5.39458 17.8834 6.62489 16.8934 8.03572 16.2124C9.44655 15.5313 10.9997 15.1777 12.5739 15.179C14.1276 15.1776 15.6613 15.5221 17.0579 16.1863C18.4545 16.8505 19.6772 17.8169 20.633 19.0119C21.6176 17.7523 22.2805 16.2821 22.5669 14.723C22.8534 13.1639 22.755 11.5607 22.2801 10.046C21.8052 8.53129 20.9673 7.14868 19.8358 6.01256C18.7043 4.87644 17.3116 4.01946 15.7732 3.51253C14.2347 3.0056 12.5945 2.86329 10.9885 3.09739C9.38241 3.33149 7.85658 3.93525 6.53724 4.85873C5.21789 5.78221 4.14297 6.99885 3.4014 8.40799C2.65983 9.81713 2.27293 11.3783 2.27273 12.9622ZM12.5 22.9378C10.1522 22.9413 7.8753 22.1535 6.05455 20.7077C6.78742 19.6844 7.76288 18.8488 8.89795 18.2722C10.033 17.6956 11.2941 17.3949 12.5739 17.3958C13.8377 17.3948 15.0835 17.688 16.2079 18.2509C17.3322 18.8138 18.3027 19.6302 19.0386 20.6323C17.2037 22.125 14.8893 22.9411 12.5 22.9378Z" fill="#3A3A3A"/>
</svg>
