<svg width="28" height="21" viewBox="0 0 28 21" fill="none" xmlns="http://www.w3.org/2000/svg">
<path d="M27.5777 10.6286C27.5777 10.5626 27.5777 10.4875 27.5746 10.4005C27.5716 10.1573 27.5654 9.88409 27.5592 9.59288C27.5346 8.75528 27.4915 7.92069 27.4238 7.13413C27.3315 6.05036 27.1961 5.14672 27.0114 4.46824C26.8165 3.76018 26.4345 3.11442 25.9036 2.59549C25.3726 2.07657 24.7114 1.70266 23.9858 1.51113C23.1148 1.28297 21.4097 1.14187 19.0089 1.05481C17.867 1.01278 16.6451 0.985759 15.4232 0.970749C14.9954 0.964744 14.5983 0.961742 14.2413 0.95874H13.3364C12.9794 0.961742 12.5823 0.964744 12.1545 0.970749C10.9326 0.985759 9.71068 1.01278 8.56879 1.05481C6.16805 1.14487 4.45983 1.28597 3.59187 1.51113C2.86612 1.70219 2.20458 2.07594 1.67357 2.59494C1.14256 3.11394 0.760727 3.75995 0.566328 4.46824C0.378578 5.14672 0.24623 6.05036 0.153893 7.13413C0.0861804 7.92069 0.0430901 8.75528 0.0184672 9.59288C0.00923356 9.88409 0.00615569 10.1573 0.00307782 10.4005C0.00307782 10.4875 0 10.5626 0 10.6286V10.7967C0 10.8628 -4.70318e-08 10.9378 0.00307782 11.0249C0.00615569 11.2681 0.0123114 11.5413 0.0184672 11.8325C0.0430901 12.6701 0.0861804 13.5047 0.153893 14.2912C0.24623 15.375 0.381656 16.2786 0.566328 16.9571C0.960295 18.3951 2.11757 19.5299 3.59187 19.9142C4.45983 20.1424 6.16805 20.2835 8.56879 20.3705C9.71068 20.4126 10.9326 20.4396 12.1545 20.4546C12.5823 20.4606 12.9794 20.4636 13.3364 20.4666H14.2413C14.5983 20.4636 14.9954 20.4606 15.4232 20.4546C16.6451 20.4396 17.867 20.4126 19.0089 20.3705C21.4097 20.2805 23.1179 20.1394 23.9858 19.9142C25.4601 19.5299 26.6174 18.3981 27.0114 16.9571C27.1991 16.2786 27.3315 15.375 27.4238 14.2912C27.4915 13.5047 27.5346 12.6701 27.5592 11.8325C27.5685 11.5413 27.5716 11.2681 27.5746 11.0249C27.5746 10.9378 27.5777 10.8628 27.5777 10.7967V10.6286ZM25.3616 10.7847C25.3616 10.8478 25.3616 10.9168 25.3586 10.9979C25.3555 11.232 25.3493 11.4902 25.3432 11.7694C25.3216 12.568 25.2785 13.3666 25.2139 14.1081C25.1308 15.0748 25.0138 15.8673 24.8692 16.3987C24.6784 17.0922 24.1182 17.6416 23.4103 17.8247C22.7639 17.9929 21.1357 18.1279 18.9227 18.209C17.8024 18.251 16.5959 18.2781 15.3924 18.2931C14.9708 18.2991 14.5799 18.3021 14.229 18.3021H13.3487L12.1853 18.2931C10.9818 18.2781 9.77839 18.251 8.65497 18.209C6.44198 18.1249 4.81071 17.9929 4.16744 17.8247C3.45953 17.6386 2.89935 17.0922 2.70853 16.3987C2.56387 15.8673 2.44691 15.0748 2.3638 14.1081C2.29917 13.3666 2.25916 12.568 2.23453 11.7694C2.2253 11.4902 2.22222 11.229 2.21914 10.9979C2.21914 10.9168 2.21607 10.8448 2.21607 10.7847V10.6406C2.21607 10.5776 2.21607 10.5085 2.21914 10.4275C2.22222 10.1933 2.22838 9.93512 2.23453 9.65592C2.25608 8.85736 2.29917 8.05879 2.3638 7.31726C2.44691 6.35057 2.56387 5.55801 2.70853 5.02663C2.89935 4.33314 3.45953 3.78375 4.16744 3.60062C4.81379 3.4325 6.44198 3.2974 8.65497 3.21635C9.77531 3.17432 10.9818 3.1473 12.1853 3.13229C12.607 3.12628 12.9978 3.12328 13.3487 3.12328H14.229L15.3924 3.13229C16.5959 3.1473 17.7993 3.17432 18.9227 3.21635C21.1357 3.3004 22.767 3.4325 23.4103 3.60062C24.1182 3.78675 24.6784 4.33314 24.8692 5.02663C25.0138 5.55801 25.1308 6.35057 25.2139 7.31726C25.2785 8.05879 25.3186 8.85736 25.3432 9.65592C25.3524 9.93512 25.3555 10.1963 25.3586 10.4275C25.3586 10.5085 25.3616 10.5806 25.3616 10.6406V10.7847ZM11.0496 14.7355L18.1902 10.6827L11.0496 6.68982V14.7355Z" fill="#3A3A3A"/>
</svg>
